<?xml version="1.0" encoding="UTF-8" standalone="no"?>
<svg
   width="260"
   height="120"
   viewBox="0 0 260 120"
   version="1.1"
   id="svg14"
   xmlns="http://www.w3.org/2000/svg"
   xmlns:svg="http://www.w3.org/2000/svg">
  <!-- Color definition -->
  <defs
     id="defs4">
    <style
       id="style2">
      .text {
        fill: #3d2645;
        font-family: &quot;Berkeley Mono&quot;, &quot;JetBrains Mono&quot;, &quot;IBM Plex Mono&quot;, monospace;
        font-size: 64px;
        font-weight: 500;
        dominant-baseline: middle;
      }
    </style>
  </defs>
  <!-- R character (your provided glyph) -->
  <g
     transform="matrix(1.2,0,0,1.2,10,10)"
     id="g10">
    <!-- tau base -->
    <path
       d="M 30,20 V 80 M 30,25 H 60"
       stroke="#3d2645"
       stroke-width="6"
       fill="none"
       stroke-linecap="round"
       id="path6" />
    <!-- rho flow -->
    <path
       d="M 60,25 C 70,30 70,60 50,65 40,67 45,50 55,50"
       stroke="#3d2645"
       stroke-width="6"
       fill="none"
       stroke-linecap="round"
       id="path8" />
  </g>
  <!-- "heo" text -->
  <g
     aria-label="heo"
     id="text12"
     class="text"
     style="font-weight:500;font-size:64px;font-family:'Berkeley Mono', 'JetBrains Mono', 'IBM Plex Mono', monospace;letter-spacing:0.02em;dominant-baseline:middle;fill:#3d2645">
    <path
       d="M 142.84375,55.8125 V 77.5 H 137.0625 V 55.8125 q 0,-4.71875 -1.65625,-6.9375 -1.65625,-2.21875 -5.1875,-2.21875 -4.03125,0 -6.21875,2.875 -2.15625,2.84375 -2.15625,8.1875 V 77.5 h -5.75 V 28.875 h 5.75 V 47.75 q 1.53125,-3 4.15625,-4.53125 2.625,-1.5625 6.21875,-1.5625 5.34375,0 7.96875,3.53125 2.65625,3.5 2.65625,10.625 z"
       id="path18" />
    <path
       d="M 184.56125,58.5625 V 61.375 H 159.655 v 0.1875 q 0,5.71875 2.96875,8.84375 3,3.125 8.4375,3.125 2.75,0 5.75,-0.875 3,-0.875 6.40625,-2.65625 v 5.71875 q -3.28125,1.34375 -6.34375,2 -3.03125,0.6875 -5.875,0.6875 -8.15625,0 -12.75,-4.875 -4.59375,-4.90625 -4.59375,-13.5 0,-8.375 4.5,-13.375 4.5,-5 12,-5 6.6875,0 10.53125,4.53125 3.875,4.53125 3.875,12.375 z m -5.75,-1.6875 q -0.125,-5.0625 -2.40625,-7.6875 -2.25,-2.65625 -6.5,-2.65625 -4.15625,0 -6.84375,2.75 -2.6875,2.75 -3.1875,7.625 z"
       id="path20" />
    <path
       d="m 208.8725,46.53125 q -4.375,0 -6.625,3.40625 -2.25,3.40625 -2.25,10.09375 0,6.65625 2.25,10.09375 2.25,3.40625 6.625,3.40625 4.40625,0 6.65625,-3.40625 2.25,-3.4375 2.25,-10.09375 0,-6.6875 -2.25,-10.09375 -2.25,-3.40625 -6.65625,-3.40625 z m 0,-4.875 q 7.28125,0 11.125,4.71875 3.875,4.71875 3.875,13.65625 0,8.96875 -3.84375,13.6875 -3.84375,4.6875 -11.15625,4.6875 -7.28125,0 -11.125,-4.6875 -3.84375,-4.71875 -3.84375,-13.6875 0,-8.9375 3.84375,-13.65625 3.84375,-4.71875 11.125,-4.71875 z"
       id="path22" />
  </g>
</svg>
